<!-- icon666.com - MILLIONS OF FREE VECTOR ICONS --><svg viewBox="0 0 128 128" xmlns="http://www.w3.org/2000/svg"><g><path d="m104.09 104.09a56.686 56.686 0 1 0 -40.09 16.61 56.515 56.515 0 0 0 40.09-16.61z" fill="#feb103"></path><g><path d="m104.09 104.09a41.453 41.453 0 0 0 -80.18 0 56.686 56.686 0 0 0 80.18 0z" fill="#979797"></path><circle cx="64" cy="51.818" fill="#fde2c5" r="21.364"></circle></g></g><g><path d="m23.117 100.68c-.954-1.065-1.883-2.16-2.757-3.3a1.75 1.75 0 1 0 -2.781 2.12 58.445 58.445 0 0 0 95.211-67.686 1.751 1.751 0 1 0 -2.92 1.932 54.93 54.93 0 0 1 -4.981 66.952 43.2 43.2 0 0 0 -30.827-28.075 23.113 23.113 0 1 0 -20.124 0 43.2 43.2 0 0 0 -30.821 28.057zm21.27-48.862a19.613 19.613 0 1 1 19.64 19.612h-.054a19.635 19.635 0 0 1 -19.586-19.612zm19.571 23.112h.042.042a39.7 39.7 0 0 1 38.083 28.616 54.882 54.882 0 0 1 -76.25 0 39.7 39.7 0 0 1 38.083-28.616z"></path><path d="m104.371 26.733a1.75 1.75 0 1 0 2.578-2.367c-1.186-1.292-2.41-2.509-3.636-3.615a1.75 1.75 0 1 0 -2.346 2.6c1.146 1.032 2.292 2.17 3.404 3.382z"></path><path d="m64 9.05a54.686 54.686 0 0 1 29.906 8.856 1.75 1.75 0 0 0 1.909-2.933 58.449 58.449 0 0 0 -83.347 76.615 1.75 1.75 0 1 0 3.084-1.656 54.953 54.953 0 0 1 48.448-80.882z"></path></g></svg>