<!-- icon666.com - MILLIONS OF FREE VECTOR ICONS --><svg id="icon" viewBox="0 0 128 128" xmlns="http://www.w3.org/2000/svg"><path d="m120.222 19.95c-22.374-29.832-54.501-2.868-56.222-2.295-1.721-.573-33.848-27.537-56.223 2.295s14.343 78.597 56.223 102.119c41.88-23.522 78.6-72.286 56.222-102.119z" fill="#ef5361"></path><path d="m64 122.07q-3.63-2.04-7.2-4.33c40.61-24.11 75.07-71.27 53.23-100.39a35.462 35.462 0 0 0 -13.37-11.35c7.96.55 16.28 4.24 23.56 13.95 22.38 29.83-14.34 78.6-56.22 102.12z" fill="#da2a47"></path><g fill="#2f3a5a"><path d="m64 123.216-.489-.275c-31.5-17.694-57.188-47.517-62.46-72.525-2.529-12-.535-22.45 5.927-31.066 9.417-12.556 26.796-23.35 56.127-3.45.322.218.65.441.9.6.236-.157.567-.382.893-.6 29.327-19.9 46.708-9.1 56.124 3.45 6.462 8.616 8.456 19.068 5.927 31.066-5.272 25.008-30.956 54.831-62.46 72.525zm-30.484-116.235c-11.589 0-19.62 6.478-24.938 13.569-6.101 8.135-7.978 18.044-5.57 29.45 5.135 24.36 30.178 53.457 60.992 70.921 30.814-17.464 55.857-46.561 60.992-70.921 2.405-11.41.531-21.319-5.569-29.454-8.895-11.86-25.382-22-53.405-2.994a9.148 9.148 0 0 1 -1.7 1.047l-.318.11-.316-.105a9.148 9.148 0 0 1 -1.7-1.047c-11.27-7.645-20.674-10.576-28.468-10.576z"></path><path d="m33.322 80.242a1 1 0 0 1 -.6-.2c-.49-.366-12.064-9.168-17-28.054-5.044-19.3 9.933-27.7 10.085-27.784a1 1 0 0 1 .957 1.756c-.563.309-13.746 7.772-9.106 25.522 4.749 18.17 16.146 26.871 16.262 26.957a1 1 0 0 1 -.6 1.8z"></path><path d="m25.4 34.646a1 1 0 0 1 -.652-.242l-8.183-7.038a1 1 0 0 1 1.3-1.517l8.183 7.038a1 1 0 0 1 -.652 1.758z"></path><path d="m21.922 40.06a1 1 0 0 1 -.487-.127l-9.419-5.27a1 1 0 1 1 .977-1.745l9.419 5.27a1 1 0 0 1 -.489 1.873z"></path><path d="m20.808 46.8a.99.99 0 0 1 -.312-.05l-10.255-3.361a1 1 0 0 1 .623-1.9l10.255 3.365a1 1 0 0 1 -.312 1.951z"></path><path d="m22.138 53.711h-.022l-10.79-.245a1 1 0 0 1 -.978-1.022.974.974 0 0 1 1.022-.977l10.79.245a1 1 0 0 1 -.022 2z"></path><path d="m14.413 63.336a1 1 0 0 1 -.132-1.991l10.519-1.409a1 1 0 1 1 .266 1.982l-10.519 1.409a1.037 1.037 0 0 1 -.134.009z"></path><path d="m19.467 71.63a1 1 0 0 1 -.36-1.934l10.069-3.885a1 1 0 0 1 .721 1.866l-10.07 3.886a1.008 1.008 0 0 1 -.36.067z"></path><path d="m24.494 78.825a1 1 0 0 1 -.494-1.872l9.411-5.284a1 1 0 1 1 .979 1.744l-9.408 5.287a.992.992 0 0 1 -.488.125z"></path></g></svg>